<?xml version="1.0" encoding="UTF-8"?>
<svg xmlns="http://www.w3.org/2000/svg" viewBox="0 0 1400 1448"
     preserveAspectRatio="xMidYMid meet" width="100%" font-family="JetBrains Mono, monospace">
<defs>
  <style type="text/css"><![CDATA[
    @import url('https://fonts.googleapis.com/css2?family=JetBrains+Mono:wght@500;600;700&family=Inter:wght@400;500;600&display=swap');
    .bg            { fill: #16130F; }
    .bg-soft       { fill: #1A1612; }
    .box           { fill: #1E1B16; stroke: #3A332C; stroke-width: 1; }
    .box-focal     { fill: #232019; stroke: #4F7B6E; stroke-width: 1.4; }
    .box-future    { fill: #1A1612; stroke: #2F2A24; stroke-width: 1; stroke-dasharray: 4 3; }
    .box-soft      { fill: #1C1915; stroke: #2F2A24; stroke-width: 1; }
    .label-h       { font-family: 'JetBrains Mono', monospace; fill: #F0EDE5; font-size: 16px; font-weight: 700; letter-spacing: 0.3px; }
    .label         { font-family: 'JetBrains Mono', monospace; fill: #F0EDE5; font-size: 14px; font-weight: 600; }
    .label-sub     { font-family: 'JetBrains Mono', monospace; fill: #8FA89E; font-size: 11px; letter-spacing: 1.4px; text-transform: uppercase; }
    .label-tiny    { font-family: 'JetBrains Mono', monospace; fill: #6A8077; font-size: 10px; letter-spacing: 1px; text-transform: uppercase; }
    .label-radial  { font-family: 'JetBrains Mono', monospace; fill: #D8E5DE; font-size: 13px; font-weight: 600; letter-spacing: 0.6px; }
    .label-accent  { font-family: 'JetBrains Mono', monospace; fill: #8BC0A8; font-size: 12px; font-weight: 600; letter-spacing: 1px; text-transform: uppercase; }
    .label-inter   { font-family: 'Inter', system-ui, sans-serif; fill: #F0EDE5; font-size: 14px; font-weight: 500; }
    .conn          { stroke: #6A8077; stroke-width: 1; fill: none; }
    .conn-soft     { stroke: #3A615A; stroke-width: 1; fill: none; }
    .conn-dashed   { stroke: #3A615A; stroke-width: 1; fill: none; stroke-dasharray: 4 3; }
    .accent-fill   { fill: #4F7B6E; }
    .accent-bright { fill: #8BC0A8; }
    .corner-mark   { font-family: 'JetBrains Mono', monospace; fill: #5F7770; font-size: 10px; letter-spacing: 1.4px; text-transform: uppercase; }
  ]]></style>
  <marker id="arrow" viewBox="0 0 10 10" refX="9" refY="5" markerWidth="5" markerHeight="5" orient="auto-start-reverse">
    <path d="M 0 0 L 10 5 L 0 10 z" fill="#6A8077"/>
  </marker>
  <marker id="arrow-soft" viewBox="0 0 10 10" refX="9" refY="5" markerWidth="4" markerHeight="4" orient="auto-start-reverse">
    <path d="M 0 0 L 10 5 L 0 10 z" fill="#3A615A"/>
  </marker>
</defs>
<!-- Window outer border + bg -->
<rect x="0.5" y="0.5" width="1399" height="1447" rx="10" fill="#FFFFFF" stroke="#a89968" stroke-width="1"/>

  <!-- OS window title bar -->
  <path d="M 0 10 Q 0 0 10 0 L 1390 0 Q 1400 0 1400 10 L 1400 48 L 0 48 Z" fill="#f5f1e8"/>
  <line x1="0" y1="48" x2="1400" y2="48" stroke="#a89968" stroke-width="1"/>
  <text x="20" y="29.0" font-family="JetBrains Mono, monospace" font-size="15" fill="#3D3933" font-weight="600">claude-seo.app — 03 · sub-skill ecosystem · B</text>
  <!-- Traffic lights (right-aligned) -->
  <circle cx="1316"   cy="24.0" r="9" fill="#fbbf24" stroke="#a89968" stroke-width="0.7"/>
  <circle cx="1344"   cy="24.0" r="9" fill="#10b981"  stroke="#a89968" stroke-width="0.7"/>
  <circle cx="1372" cy="24.0" r="9" fill="#ef4444"    stroke="#a89968" stroke-width="0.7"/>

<!-- Content area: dark canvas, shifted down by TITLE_H -->
<g transform="translate(0, 48)">
  <rect class="bg" width="1400" height="1400"/>
  <circle cx="700.0" cy="700.0" r="220" fill="none" stroke="#3A615A" stroke-width="1" stroke-dasharray="3 3" opacity="0.4"/>
<circle cx="700.0" cy="700.0" r="460" fill="none" stroke="#3A615A" stroke-width="1" stroke-dasharray="3 3" opacity="0.3"/>
<rect x="570.0" y="645.0" width="260" height="110" rx="4" class="box-focal"><animate attributeName="opacity" values="0.85;1;0.85" dur="4.2s" repeatCount="indefinite"/></rect>
<text x="700.0" y="695.0" class="label-accent" text-anchor="middle">orchestrator</text>
<text x="700.0" y="715.0" class="label" text-anchor="middle">seo/SKILL.md</text>
<rect x="610.0" y="338.0" width="180" height="44" rx="4" class="box"></rect>
<text x="700.0" y="365.0" class="label" text-anchor="middle">seo-audit</text>
<g transform="translate(620.0,351.0) scale(0.75)" fill="none" stroke="#A4D4BD" stroke-width="2" stroke-linejoin="round"><path d="M12 2 L20 5 L20 11 C 20 16, 16 20, 12 22 C 8 20, 4 16, 4 11 L 4 5 Z"/><path d="M8 12 L11 15 L16 9"/></g>
<path d="M 700.0 645.0 L 700.0 382.0" class="conn-soft"/>
<rect x="780.0" y="383.5513627132908" width="180" height="44" rx="4" class="box"></rect>
<text x="870.0" y="410.5513627132908" class="label" text-anchor="middle">seo-page</text>
<g transform="translate(790.0,396.5513627132908) scale(0.75)" fill="none" stroke="#A4D4BD" stroke-width="2" stroke-linejoin="round"><path d="M6 3 L15 3 L19 7 L19 21 L6 21 Z"/><path d="M15 3 L15 7 L19 7"/><path d="M9 12 L16 12"/><path d="M9 16 L14 16"/></g>
<path d="M 765.0 652.3686027918559 L 825.0 424.60392159654845" class="conn-soft"/>
<rect x="904.4486372867091" y="508.0" width="180" height="44" rx="4" class="box"></rect>
<text x="994.4486372867091" y="535.0" class="label" text-anchor="middle">seo-flow</text>
<g transform="translate(914.4486372867091,521.0) scale(0.75)" fill="none" stroke="#A4D4BD" stroke-width="2" stroke-linecap="round"><circle cx="6" cy="6" r="2.5"/><circle cx="18" cy="6" r="2.5"/><circle cx="12" cy="18" r="2.5"/><path d="M6 8.5 L 6 12 L 12 12 L 12 15.5"/><path d="M18 8.5 L 18 12 L 12 12"/></g>
<path d="M 812.5833024919771 672.5 L 916.5063509461096 541.0" class="conn-soft"/>
<rect x="950.0" y="678.0" width="180" height="44" rx="4" class="box"></rect>
<text x="1040.0" y="705.0" class="label" text-anchor="middle">seo-content</text>
<g transform="translate(960.0,691.0) scale(0.75)" fill="none" stroke="#A4D4BD" stroke-width="2" stroke-linejoin="round"><path d="M6 3 L15 3 L19 7 L19 21 L6 21 Z"/><path d="M15 3 L15 7 L19 7"/><path d="M9 12 L16 12"/><path d="M9 16 L14 16"/></g>
<path d="M 830.0 700.0 L 950.0 700.0" class="conn-soft"/>
<rect x="904.4486372867092" y="848.0" width="180" height="44" rx="4" class="box"></rect>
<text x="994.4486372867092" y="875.0" class="label" text-anchor="middle">seo-content-brief</text>
<g transform="translate(914.4486372867092,861.0) scale(0.75)" fill="none" stroke="#A4D4BD" stroke-width="2" stroke-linejoin="round"><path d="M6 3 L15 3 L19 7 L19 21 L6 21 Z"/><path d="M15 3 L15 7 L19 7"/><path d="M9 12 L16 12"/><path d="M9 16 L14 16"/></g>
<path d="M 812.5833024919771 727.5 L 916.5063509461097 859.0" class="conn-soft"/>
<rect x="780.0" y="972.4486372867092" width="180" height="44" rx="4" class="box"></rect>
<text x="870.0" y="999.4486372867092" class="label" text-anchor="middle">seo-cluster</text>
<g transform="translate(790.0,985.4486372867092) scale(0.75)" fill="none" stroke="#A4D4BD" stroke-width="2" stroke-linecap="round"><circle cx="6" cy="6" r="2.5"/><circle cx="18" cy="6" r="2.5"/><circle cx="12" cy="18" r="2.5"/><path d="M6 8.5 L 6 12 L 12 12 L 12 15.5"/><path d="M18 8.5 L 18 12 L 12 12"/></g>
<path d="M 765.0 747.6313972081441 L 825.0 975.3960784034515" class="conn-soft"/>
<rect x="610.0" y="1018.0" width="180" height="44" rx="4" class="box"></rect>
<text x="700.0" y="1045.0" class="label" text-anchor="middle">seo-schema</text>
<g transform="translate(620.0,1031.0) scale(0.75)" fill="none" stroke="#A4D4BD" stroke-width="2" stroke-linejoin="round"><rect x="2" y="2" width="20" height="20" rx="2"/><rect x="7" y="7" width="10" height="10" rx="1"/></g>
<path d="M 700.0 755.0 L 700.0 1018.0" class="conn-soft"/>
<rect x="439.9999999999999" y="972.4486372867091" width="180" height="44" rx="4" class="box"></rect>
<text x="529.9999999999999" y="999.4486372867091" class="label" text-anchor="middle">seo-sitemap</text>
<g transform="translate(449.9999999999999,985.4486372867091) scale(0.75)" fill="none" stroke="#A4D4BD" stroke-width="2" stroke-linecap="round" stroke-linejoin="round"><rect x="9" y="2" width="6" height="4"/><rect x="2" y="18" width="6" height="4"/><rect x="9" y="18" width="6" height="4"/><rect x="16" y="18" width="6" height="4"/><path d="M12 6 L 12 14 M 5 14 L 5 18 M 12 14 L 19 14 L 19 18 M 5 14 L 12 14 M 12 14 L 12 18"/></g>
<path d="M 635.0 747.6313972081441 L 574.9999999999999 975.3960784034514" class="conn-soft"/>
<rect x="315.5513627132909" y="848.0000000000001" width="180" height="44" rx="4" class="box"></rect>
<text x="405.5513627132909" y="875.0000000000001" class="label" text-anchor="middle">seo-images</text>
<g transform="translate(325.5513627132909,861.0000000000001) scale(0.75)" fill="none" stroke="#A4D4BD" stroke-width="2" stroke-linejoin="round"><rect x="3" y="5" width="18" height="14" rx="2"/><circle cx="9" cy="10.5" r="2"/><path d="M3 17 L9 12 L13 16 L17 12 L21 16"/></g>
<path d="M 587.4166975080229 727.5 L 483.4936490538904 859.0000000000001" class="conn-soft"/>
<rect x="270.0" y="678.0" width="180" height="44" rx="4" class="box"></rect>
<text x="360.0" y="705.0" class="label" text-anchor="middle">seo-technical</text>
<g transform="translate(280.0,691.0) scale(0.75)" fill="none" stroke="#A4D4BD" stroke-width="2" stroke-linejoin="round"><path d="M12 2 L20 5 L20 11 C 20 16, 16 20, 12 22 C 8 20, 4 16, 4 11 L 4 5 Z"/><path d="M8 12 L11 15 L16 9"/></g>
<path d="M 570.0 700.0 L 450.0 700.0" class="conn-soft"/>
<rect x="315.55136271329087" y="508.0" width="180" height="44" rx="4" class="box"></rect>
<text x="405.55136271329087" y="535.0" class="label" text-anchor="middle">seo-google</text>
<g transform="translate(325.55136271329087,521.0) scale(0.75)" fill="#A4D4BD"><path d="M3.9998 22.9291C1.7908 22.9291 0 21.1383 0 18.9293s1.7908-3.9998 3.9998-3.9998 3.9998 1.7908 3.9998 3.9998-1.7908 3.9998-3.9998 3.9998zm19.4643-6.0004L15.4632 3.072C14.3586 1.1587 11.9121.5028 9.9988 1.6074S7.4295 5.1585 8.5341 7.0718l8.0009 13.8567c1.1046 1.9133 3.5511 2.5679 5.4644 1.4646 1.9134-1.1046 2.568-3.5511 1.4647-5.4644zM7.5137 4.8438L1.5645 15.1484A4.5 4.5 0 0 1 4 14.4297c2.5597-.0075 4.6248 2.1585 4.4941 4.7148l3.2168-5.5723-3.6094-6.25c-.4499-.7793-.6322-1.6394-.5878-2.4784z"/></g>
<path d="M 587.4166975080229 672.5 L 483.49364905389035 541.0" class="conn-soft"/>
<rect x="439.9999999999999" y="383.5513627132909" width="180" height="44" rx="4" class="box"></rect>
<text x="529.9999999999999" y="410.5513627132909" class="label" text-anchor="middle">seo-backlinks</text>
<g transform="translate(449.9999999999999,396.5513627132909) scale(0.75)" fill="none" stroke="#A4D4BD" stroke-width="2" stroke-linecap="round"><path d="M4 20 L4 4"/><path d="M4 20 L20 20"/><rect x="7" y="13" width="3" height="7" fill="#A4D4BD" stroke="none"/><rect x="12" y="9" width="3" height="11" fill="#A4D4BD" stroke="none"/><rect x="17" y="5" width="3" height="15" fill="#A4D4BD" stroke="none"/></g>
<path d="M 635.0 652.3686027918559 L 574.9999999999999 424.60392159654856" class="conn-soft"/>
<rect x="600.0" y="98.0" width="200" height="44" rx="4" class="box"></rect>
<text x="700.0" y="125.0" class="label" text-anchor="middle">seo-geo</text>
<g transform="translate(610.0,111.0) scale(0.75)" fill="#A4D4BD"><path d="M12 2 L13.5 9 L21 10.5 L13.5 12 L12 19.5 L10.5 12 L3 10.5 L10.5 9 Z"/><path d="M19 3 L19.7 5 L21.5 5.5 L19.7 6 L19 8 L18.3 6 L16.5 5.5 L18.3 5 Z"/></g>
<path d="M 700.0 335.0 L 700.0 142.0" class="conn-soft" opacity="0.5"/>
<rect x="890.0" y="175.70526580502553" width="200" height="44" rx="4" class="box"></rect>
<text x="990.0" y="202.70526580502553" class="label" text-anchor="middle">seo-sxo</text>
<g transform="translate(900.0,188.70526580502553) scale(0.75)" fill="none" stroke="#A4D4BD" stroke-width="2" stroke-linecap="round" stroke-linejoin="round"><path d="M2 12 L7 12 L9 6 L12 18 L15 9 L17 12 L22 12"/></g>
<path d="M 882.5 383.90072761867987 L 940.0 216.7578246882832" class="conn-soft" opacity="0.5"/>
<rect x="1102.2947341949744" y="388.0" width="200" height="44" rx="4" class="box"></rect>
<text x="1202.2947341949744" y="415.0" class="label" text-anchor="middle">seo-drift</text>
<g transform="translate(1112.2947341949744,401.0) scale(0.75)" fill="none" stroke="#A4D4BD" stroke-width="2" stroke-linecap="round"><path d="M3 16 A 9 9 0 0 1 21 16"/><path d="M12 16 L 17 8"/><circle cx="12" cy="16" r="1.5" fill="#A4D4BD"/></g>
<path d="M 1016.0992723813201 517.5 L 1115.6921938165306 421.0" class="conn-soft" opacity="0.5"/>
<rect x="1180.0" y="678.0" width="200" height="44" rx="4" class="box"></rect>
<text x="1280.0" y="705.0" class="label" text-anchor="middle">seo-local</text>
<g transform="translate(1190.0,691.0) scale(0.75)" fill="#A4D4BD"><path d="M12 2 C 7.5 2, 4 5.5, 4 10 C 4 16, 12 22, 12 22 S 20 16, 20 10 C 20 5.5, 16.5 2, 12 2 Z M 12 12.5 A 2.5 2.5 0 1 1 12 7.5 A 2.5 2.5 0 0 1 12 12.5 Z"/></g>
<path d="M 1065.0 700.0 L 1180.0 700.0" class="conn-soft" opacity="0.5"/>
<rect x="1102.2947341949744" y="967.9999999999999" width="200" height="44" rx="4" class="box"></rect>
<text x="1202.2947341949744" y="994.9999999999999" class="label" text-anchor="middle">seo-maps</text>
<g transform="translate(1112.2947341949744,980.9999999999999) scale(0.75)" fill="#A4D4BD"><path d="M12 2 C 7.5 2, 4 5.5, 4 10 C 4 16, 12 22, 12 22 S 20 16, 20 10 C 20 5.5, 16.5 2, 12 2 Z M 12 12.5 A 2.5 2.5 0 1 1 12 7.5 A 2.5 2.5 0 0 1 12 12.5 Z"/></g>
<path d="M 1016.0992723813201 882.5 L 1115.6921938165306 978.9999999999999" class="conn-soft" opacity="0.5"/>
<rect x="890.0" y="1180.2947341949744" width="200" height="44" rx="4" class="box"></rect>
<text x="990.0" y="1207.2947341949744" class="label" text-anchor="middle">seo-ecommerce</text>
<g transform="translate(900.0,1193.2947341949744) scale(0.75)" fill="none" stroke="#A4D4BD" stroke-width="2" stroke-linecap="round" stroke-linejoin="round"><path d="M2 4 L5 4 L7 16 L19 16 L21 8 L7 8"/><circle cx="9" cy="20" r="1.5" fill="#A4D4BD"/><circle cx="17" cy="20" r="1.5" fill="#A4D4BD"/></g>
<path d="M 882.5 1016.0992723813201 L 940.0 1183.2421753117167" class="conn-soft" opacity="0.5"/>
<rect x="600.0" y="1258.0" width="200" height="44" rx="4" class="box"></rect>
<text x="700.0" y="1285.0" class="label" text-anchor="middle">seo-hreflang</text>
<g transform="translate(610.0,1271.0) scale(0.75)" fill="none" stroke="#A4D4BD" stroke-width="2" stroke-linecap="round"><circle cx="12" cy="12" r="9"/><path d="M3 12 L21 12"/><path d="M12 3 C 8 8, 8 16, 12 21"/><path d="M12 3 C 16 8, 16 16, 12 21"/></g>
<path d="M 700.0 1065.0 L 700.0 1258.0" class="conn-soft" opacity="0.5"/>
<rect x="309.9999999999999" y="1180.2947341949744" width="200" height="44" rx="4" class="box"></rect>
<text x="409.9999999999999" y="1207.2947341949744" class="label" text-anchor="middle">seo-plan</text>
<g transform="translate(319.9999999999999,1193.2947341949744) scale(0.75)" fill="none" stroke="#A4D4BD" stroke-width="2" stroke-linejoin="round"><path d="M6 3 L15 3 L19 7 L19 21 L6 21 Z"/><path d="M15 3 L15 7 L19 7"/><path d="M9 12 L16 12"/><path d="M9 16 L14 16"/></g>
<path d="M 517.4999999999999 1016.09927238132 L 459.9999999999999 1183.2421753117167" class="conn-soft" opacity="0.5"/>
<rect x="97.7052658050257" y="968.0000000000002" width="200" height="44" rx="4" class="box"></rect>
<text x="197.7052658050257" y="995.0000000000002" class="label" text-anchor="middle">seo-programmatic</text>
<g transform="translate(107.7052658050257,981.0000000000002) scale(0.75)" fill="none" stroke="#A4D4BD" stroke-width="2"><ellipse cx="12" cy="5" rx="8" ry="3"/><path d="M4 5 L 4 19 C 4 20.7, 7.6 22, 12 22 C 16.4 22, 20 20.7, 20 19 L 20 5"/><path d="M4 12 C 4 13.7, 7.6 15, 12 15 C 16.4 15, 20 13.7, 20 12"/></g>
<path d="M 383.90072761868 882.5000000000001 L 284.30780618346955 979.0000000000002" class="conn-soft" opacity="0.5"/>
<rect x="20.0" y="678.0000000000001" width="200" height="44" rx="4" class="box"></rect>
<text x="120.0" y="705.0000000000001" class="label" text-anchor="middle">seo-competitor-pages</text>
<g transform="translate(30.0,691.0000000000001) scale(0.75)" fill="none" stroke="#A4D4BD" stroke-width="2.2" stroke-linecap="round"><circle cx="10.5" cy="10.5" r="6.5"/><path d="M15.5 15.5 L20 20"/></g>
<path d="M 335.0 700.0 L 220.0 700.0000000000001" class="conn-soft" opacity="0.5"/>
<rect x="97.70526580502559" y="387.99999999999994" width="200" height="44" rx="4" class="box"></rect>
<text x="197.7052658050256" y="414.99999999999994" class="label" text-anchor="middle">seo-dataforseo</text>
<g transform="translate(107.70526580502559,400.99999999999994) scale(0.75)" fill="none" stroke="#A4D4BD" stroke-width="2"><ellipse cx="12" cy="5" rx="8" ry="3"/><path d="M4 5 L 4 19 C 4 20.7, 7.6 22, 12 22 C 16.4 22, 20 20.7, 20 19 L 20 5"/><path d="M4 12 C 4 13.7, 7.6 15, 12 15 C 16.4 15, 20 13.7, 20 12"/></g>
<path d="M 383.9007276186799 517.5 L 284.30780618346944 420.99999999999994" class="conn-soft" opacity="0.5"/>
<rect x="309.9999999999997" y="175.70526580502576" width="200" height="44" rx="4" class="box"></rect>
<text x="409.9999999999997" y="202.70526580502576" class="label" text-anchor="middle">seo-image-gen</text>
<g transform="translate(319.9999999999997,188.70526580502576) scale(0.75)" fill="none" stroke="#A4D4BD" stroke-width="2" stroke-linecap="round"><path d="M5 19 L19 5"/><path d="M16 2 L16 6"/><path d="M14 4 L18 4"/><path d="M20 8 L20 11"/><path d="M19 9.5 L21 9.5"/></g>
<path d="M 517.4999999999998 383.90072761868 L 459.9999999999998 216.7578246882834" class="conn-soft" opacity="0.5"/>
<text x="700.0" y="462.0" class="label-sub" text-anchor="middle">CORE FOUNDATION</text>
<text x="700.0" y="222.0" class="label-sub" text-anchor="middle">AI SEARCH · LOCAL · COMMERCE · EXT</text>
  <text x="1380" y="1388" class="corner-mark" text-anchor="end">03 · sub-skill ecosystem · B</text>
</g>
</svg>
