<?xml version="1.0" encoding="UTF-8"?>
<svg xmlns="http://www.w3.org/2000/svg" viewBox="0 0 1500 1148"
     preserveAspectRatio="xMidYMid meet" width="100%" font-family="JetBrains Mono, monospace">
<defs>
  <style type="text/css"><![CDATA[
    @import url('https://fonts.googleapis.com/css2?family=JetBrains+Mono:wght@500;600;700&family=Inter:wght@400;500;600&display=swap');
    .bg            { fill: #16130F; }
    .bg-soft       { fill: #1A1612; }
    .box           { fill: #1E1B16; stroke: #3A332C; stroke-width: 1; }
    .box-focal     { fill: #232019; stroke: #4F7B6E; stroke-width: 1.4; }
    .box-future    { fill: #1A1612; stroke: #2F2A24; stroke-width: 1; stroke-dasharray: 4 3; }
    .box-soft      { fill: #1C1915; stroke: #2F2A24; stroke-width: 1; }
    .label-h       { font-family: 'JetBrains Mono', monospace; fill: #F0EDE5; font-size: 16px; font-weight: 700; letter-spacing: 0.3px; }
    .label         { font-family: 'JetBrains Mono', monospace; fill: #F0EDE5; font-size: 14px; font-weight: 600; }
    .label-sub     { font-family: 'JetBrains Mono', monospace; fill: #8FA89E; font-size: 11px; letter-spacing: 1.4px; text-transform: uppercase; }
    .label-tiny    { font-family: 'JetBrains Mono', monospace; fill: #6A8077; font-size: 10px; letter-spacing: 1px; text-transform: uppercase; }
    .label-radial  { font-family: 'JetBrains Mono', monospace; fill: #D8E5DE; font-size: 13px; font-weight: 600; letter-spacing: 0.6px; }
    .label-accent  { font-family: 'JetBrains Mono', monospace; fill: #8BC0A8; font-size: 12px; font-weight: 600; letter-spacing: 1px; text-transform: uppercase; }
    .label-inter   { font-family: 'Inter', system-ui, sans-serif; fill: #F0EDE5; font-size: 14px; font-weight: 500; }
    .conn          { stroke: #6A8077; stroke-width: 1; fill: none; }
    .conn-soft     { stroke: #3A615A; stroke-width: 1; fill: none; }
    .conn-dashed   { stroke: #3A615A; stroke-width: 1; fill: none; stroke-dasharray: 4 3; }
    .accent-fill   { fill: #4F7B6E; }
    .accent-bright { fill: #8BC0A8; }
    .corner-mark   { font-family: 'JetBrains Mono', monospace; fill: #5F7770; font-size: 10px; letter-spacing: 1.4px; text-transform: uppercase; }
  ]]></style>
  <marker id="arrow" viewBox="0 0 10 10" refX="9" refY="5" markerWidth="5" markerHeight="5" orient="auto-start-reverse">
    <path d="M 0 0 L 10 5 L 0 10 z" fill="#6A8077"/>
  </marker>
  <marker id="arrow-soft" viewBox="0 0 10 10" refX="9" refY="5" markerWidth="4" markerHeight="4" orient="auto-start-reverse">
    <path d="M 0 0 L 10 5 L 0 10 z" fill="#3A615A"/>
  </marker>
</defs>
<!-- Window outer border + bg -->
<rect x="0.5" y="0.5" width="1499" height="1147" rx="10" fill="#FFFFFF" stroke="#a89968" stroke-width="1"/>

  <!-- OS window title bar -->
  <path d="M 0 10 Q 0 0 10 0 L 1490 0 Q 1500 0 1500 10 L 1500 48 L 0 48 Z" fill="#f5f1e8"/>
  <line x1="0" y1="48" x2="1500" y2="48" stroke="#a89968" stroke-width="1"/>
  <text x="20" y="29.0" font-family="JetBrains Mono, monospace" font-size="15" fill="#3D3933" font-weight="600">claude-seo.app — 03 · sub-skill ecosystem · A</text>
  <!-- Traffic lights (right-aligned) -->
  <circle cx="1416"   cy="24.0" r="9" fill="#fbbf24" stroke="#a89968" stroke-width="0.7"/>
  <circle cx="1444"   cy="24.0" r="9" fill="#10b981"  stroke="#a89968" stroke-width="0.7"/>
  <circle cx="1472" cy="24.0" r="9" fill="#ef4444"    stroke="#a89968" stroke-width="0.7"/>

<!-- Content area: dark canvas, shifted down by TITLE_H -->
<g transform="translate(0, 48)">
  <rect class="bg" width="1500" height="1100"/>
  <text x="750.0" y="60" class="label-sub" text-anchor="middle">25 sub-skills · 7 + 1 categories</text>
<text x="70.0" y="158" class="label-accent" text-anchor="start">AUDIT</text>
<text x="370.0" y="158" class="label-tiny" text-anchor="end">03</text>
<rect x="60.0" y="175" width="320.0" height="170" rx="6" class="box-soft"></rect>
<rect x="80.0" y="191.0" width="280.0" height="42" rx="4" class="box"></rect>
<text x="220.0" y="217.0" class="label" text-anchor="middle">seo-audit</text>
<g transform="translate(92.0,203) scale(0.75)" fill="none" stroke="#A4D4BD" stroke-width="2" stroke-linejoin="round"><path d="M12 2 L20 5 L20 11 C 20 16, 16 20, 12 22 C 8 20, 4 16, 4 11 L 4 5 Z"/><path d="M8 12 L11 15 L16 9"/></g>
<rect x="80.0" y="243.0" width="280.0" height="42" rx="4" class="box"></rect>
<text x="220.0" y="269.0" class="label" text-anchor="middle">seo-page</text>
<g transform="translate(92.0,255) scale(0.75)" fill="none" stroke="#A4D4BD" stroke-width="2" stroke-linejoin="round"><path d="M6 3 L15 3 L19 7 L19 21 L6 21 Z"/><path d="M15 3 L15 7 L19 7"/><path d="M9 12 L16 12"/><path d="M9 16 L14 16"/></g>
<rect x="80.0" y="295.0" width="280.0" height="42" rx="4" class="box"></rect>
<text x="220.0" y="321.0" class="label" text-anchor="middle">seo-flow</text>
<g transform="translate(92.0,307) scale(0.75)" fill="none" stroke="#A4D4BD" stroke-width="2" stroke-linecap="round"><circle cx="6" cy="6" r="2.5"/><circle cx="18" cy="6" r="2.5"/><circle cx="12" cy="18" r="2.5"/><path d="M6 8.5 L 6 12 L 12 12 L 12 15.5"/><path d="M18 8.5 L 18 12 L 12 12"/></g>
<text x="420.0" y="158" class="label-accent" text-anchor="start">CONTENT</text>
<text x="720.0" y="158" class="label-tiny" text-anchor="end">03</text>
<rect x="410.0" y="175" width="320.0" height="170" rx="6" class="box-soft"></rect>
<rect x="430.0" y="191.0" width="280.0" height="42" rx="4" class="box"></rect>
<text x="570.0" y="217.0" class="label" text-anchor="middle">seo-content</text>
<g transform="translate(442.0,203) scale(0.75)" fill="none" stroke="#A4D4BD" stroke-width="2" stroke-linejoin="round"><path d="M6 3 L15 3 L19 7 L19 21 L6 21 Z"/><path d="M15 3 L15 7 L19 7"/><path d="M9 12 L16 12"/><path d="M9 16 L14 16"/></g>
<rect x="430.0" y="243.0" width="280.0" height="42" rx="4" class="box"></rect>
<text x="570.0" y="269.0" class="label" text-anchor="middle">seo-content-brief</text>
<g transform="translate(442.0,255) scale(0.75)" fill="none" stroke="#A4D4BD" stroke-width="2" stroke-linejoin="round"><path d="M6 3 L15 3 L19 7 L19 21 L6 21 Z"/><path d="M15 3 L15 7 L19 7"/><path d="M9 12 L16 12"/><path d="M9 16 L14 16"/></g>
<rect x="430.0" y="295.0" width="280.0" height="42" rx="4" class="box"></rect>
<text x="570.0" y="321.0" class="label" text-anchor="middle">seo-cluster</text>
<g transform="translate(442.0,307) scale(0.75)" fill="none" stroke="#A4D4BD" stroke-width="2" stroke-linecap="round"><circle cx="6" cy="6" r="2.5"/><circle cx="18" cy="6" r="2.5"/><circle cx="12" cy="18" r="2.5"/><path d="M6 8.5 L 6 12 L 12 12 L 12 15.5"/><path d="M18 8.5 L 18 12 L 12 12"/></g>
<text x="770.0" y="158" class="label-accent" text-anchor="start">SCHEMA</text>
<text x="1070.0" y="158" class="label-tiny" text-anchor="end">03</text>
<rect x="760.0" y="175" width="320.0" height="170" rx="6" class="box-soft"></rect>
<rect x="780.0" y="191.0" width="280.0" height="42" rx="4" class="box"></rect>
<text x="920.0" y="217.0" class="label" text-anchor="middle">seo-schema</text>
<g transform="translate(792.0,203) scale(0.75)" fill="none" stroke="#A4D4BD" stroke-width="2" stroke-linejoin="round"><rect x="2" y="2" width="20" height="20" rx="2"/><rect x="7" y="7" width="10" height="10" rx="1"/></g>
<rect x="780.0" y="243.0" width="280.0" height="42" rx="4" class="box"></rect>
<text x="920.0" y="269.0" class="label" text-anchor="middle">seo-sitemap</text>
<g transform="translate(792.0,255) scale(0.75)" fill="none" stroke="#A4D4BD" stroke-width="2" stroke-linecap="round" stroke-linejoin="round"><rect x="9" y="2" width="6" height="4"/><rect x="2" y="18" width="6" height="4"/><rect x="9" y="18" width="6" height="4"/><rect x="16" y="18" width="6" height="4"/><path d="M12 6 L 12 14 M 5 14 L 5 18 M 12 14 L 19 14 L 19 18 M 5 14 L 12 14 M 12 14 L 12 18"/></g>
<rect x="780.0" y="295.0" width="280.0" height="42" rx="4" class="box"></rect>
<text x="920.0" y="321.0" class="label" text-anchor="middle">seo-images</text>
<g transform="translate(792.0,307) scale(0.75)" fill="none" stroke="#A4D4BD" stroke-width="2" stroke-linejoin="round"><rect x="3" y="5" width="18" height="14" rx="2"/><circle cx="9" cy="10.5" r="2"/><path d="M3 17 L9 12 L13 16 L17 12 L21 16"/></g>
<text x="1120.0" y="158" class="label-accent" text-anchor="start">TECHNICAL</text>
<text x="1420.0" y="158" class="label-tiny" text-anchor="end">03</text>
<rect x="1110.0" y="175" width="320.0" height="170" rx="6" class="box-soft"></rect>
<rect x="1130.0" y="191.0" width="280.0" height="42" rx="4" class="box"></rect>
<text x="1270.0" y="217.0" class="label" text-anchor="middle">seo-technical</text>
<g transform="translate(1142.0,203) scale(0.75)" fill="none" stroke="#A4D4BD" stroke-width="2" stroke-linejoin="round"><path d="M12 2 L20 5 L20 11 C 20 16, 16 20, 12 22 C 8 20, 4 16, 4 11 L 4 5 Z"/><path d="M8 12 L11 15 L16 9"/></g>
<rect x="1130.0" y="243.0" width="280.0" height="42" rx="4" class="box"></rect>
<text x="1270.0" y="269.0" class="label" text-anchor="middle">seo-google</text>
<g transform="translate(1142.0,255) scale(0.75)" fill="#A4D4BD"><path d="M3.9998 22.9291C1.7908 22.9291 0 21.1383 0 18.9293s1.7908-3.9998 3.9998-3.9998 3.9998 1.7908 3.9998 3.9998-1.7908 3.9998-3.9998 3.9998zm19.4643-6.0004L15.4632 3.072C14.3586 1.1587 11.9121.5028 9.9988 1.6074S7.4295 5.1585 8.5341 7.0718l8.0009 13.8567c1.1046 1.9133 3.5511 2.5679 5.4644 1.4646 1.9134-1.1046 2.568-3.5511 1.4647-5.4644zM7.5137 4.8438L1.5645 15.1484A4.5 4.5 0 0 1 4 14.4297c2.5597-.0075 4.6248 2.1585 4.4941 4.7148l3.2168-5.5723-3.6094-6.25c-.4499-.7793-.6322-1.6394-.5878-2.4784z"/></g>
<rect x="1130.0" y="295.0" width="280.0" height="42" rx="4" class="box"></rect>
<text x="1270.0" y="321.0" class="label" text-anchor="middle">seo-backlinks</text>
<g transform="translate(1142.0,307) scale(0.75)" fill="none" stroke="#A4D4BD" stroke-width="2" stroke-linecap="round"><path d="M4 20 L4 4"/><path d="M4 20 L20 20"/><rect x="7" y="13" width="3" height="7" fill="#A4D4BD" stroke="none"/><rect x="12" y="9" width="3" height="11" fill="#A4D4BD" stroke="none"/><rect x="17" y="5" width="3" height="15" fill="#A4D4BD" stroke="none"/></g>
<text x="70.0" y="378" class="label-accent" text-anchor="start">AI SEARCH</text>
<text x="370.0" y="378" class="label-tiny" text-anchor="end">03</text>
<rect x="60.0" y="395" width="320.0" height="170" rx="6" class="box-soft"></rect>
<rect x="80.0" y="411.0" width="280.0" height="42" rx="4" class="box"></rect>
<text x="220.0" y="437.0" class="label" text-anchor="middle">seo-geo</text>
<g transform="translate(92.0,423) scale(0.75)" fill="#A4D4BD"><path d="M12 2 L13.5 9 L21 10.5 L13.5 12 L12 19.5 L10.5 12 L3 10.5 L10.5 9 Z"/><path d="M19 3 L19.7 5 L21.5 5.5 L19.7 6 L19 8 L18.3 6 L16.5 5.5 L18.3 5 Z"/></g>
<rect x="80.0" y="463.0" width="280.0" height="42" rx="4" class="box"></rect>
<text x="220.0" y="489.0" class="label" text-anchor="middle">seo-sxo</text>
<g transform="translate(92.0,475) scale(0.75)" fill="none" stroke="#A4D4BD" stroke-width="2" stroke-linecap="round" stroke-linejoin="round"><path d="M2 12 L7 12 L9 6 L12 18 L15 9 L17 12 L22 12"/></g>
<rect x="80.0" y="515.0" width="280.0" height="42" rx="4" class="box"></rect>
<text x="220.0" y="541.0" class="label" text-anchor="middle">seo-drift</text>
<g transform="translate(92.0,527) scale(0.75)" fill="none" stroke="#A4D4BD" stroke-width="2" stroke-linecap="round"><path d="M3 16 A 9 9 0 0 1 21 16"/><path d="M12 16 L 17 8"/><circle cx="12" cy="16" r="1.5" fill="#A4D4BD"/></g>
<text x="420.0" y="378" class="label-accent" text-anchor="start">LOCAL + MAPS</text>
<text x="720.0" y="378" class="label-tiny" text-anchor="end">02</text>
<rect x="410.0" y="395" width="320.0" height="118" rx="6" class="box-soft"></rect>
<rect x="430.0" y="411.0" width="280.0" height="42" rx="4" class="box"></rect>
<text x="570.0" y="437.0" class="label" text-anchor="middle">seo-local</text>
<g transform="translate(442.0,423) scale(0.75)" fill="#A4D4BD"><path d="M12 2 C 7.5 2, 4 5.5, 4 10 C 4 16, 12 22, 12 22 S 20 16, 20 10 C 20 5.5, 16.5 2, 12 2 Z M 12 12.5 A 2.5 2.5 0 1 1 12 7.5 A 2.5 2.5 0 0 1 12 12.5 Z"/></g>
<rect x="430.0" y="463.0" width="280.0" height="42" rx="4" class="box"></rect>
<text x="570.0" y="489.0" class="label" text-anchor="middle">seo-maps</text>
<g transform="translate(442.0,475) scale(0.75)" fill="#A4D4BD"><path d="M12 2 C 7.5 2, 4 5.5, 4 10 C 4 16, 12 22, 12 22 S 20 16, 20 10 C 20 5.5, 16.5 2, 12 2 Z M 12 12.5 A 2.5 2.5 0 1 1 12 7.5 A 2.5 2.5 0 0 1 12 12.5 Z"/></g>
<text x="770.0" y="482" class="label-accent" text-anchor="start">COMMERCE + INTL</text>
<text x="1070.0" y="482" class="label-tiny" text-anchor="end">05</text>
<rect x="760.0" y="499" width="320.0" height="274" rx="6" class="box-soft"></rect>
<rect x="780.0" y="515.0" width="280.0" height="42" rx="4" class="box"></rect>
<text x="920.0" y="541.0" class="label" text-anchor="middle">seo-ecommerce</text>
<g transform="translate(792.0,527) scale(0.75)" fill="none" stroke="#A4D4BD" stroke-width="2" stroke-linecap="round" stroke-linejoin="round"><path d="M2 4 L5 4 L7 16 L19 16 L21 8 L7 8"/><circle cx="9" cy="20" r="1.5" fill="#A4D4BD"/><circle cx="17" cy="20" r="1.5" fill="#A4D4BD"/></g>
<rect x="780.0" y="567.0" width="280.0" height="42" rx="4" class="box"></rect>
<text x="920.0" y="593.0" class="label" text-anchor="middle">seo-hreflang</text>
<g transform="translate(792.0,579) scale(0.75)" fill="none" stroke="#A4D4BD" stroke-width="2" stroke-linecap="round"><circle cx="12" cy="12" r="9"/><path d="M3 12 L21 12"/><path d="M12 3 C 8 8, 8 16, 12 21"/><path d="M12 3 C 16 8, 16 16, 12 21"/></g>
<rect x="780.0" y="619.0" width="280.0" height="42" rx="4" class="box"></rect>
<text x="920.0" y="645.0" class="label" text-anchor="middle">seo-plan</text>
<g transform="translate(792.0,631) scale(0.75)" fill="none" stroke="#A4D4BD" stroke-width="2" stroke-linejoin="round"><path d="M6 3 L15 3 L19 7 L19 21 L6 21 Z"/><path d="M15 3 L15 7 L19 7"/><path d="M9 12 L16 12"/><path d="M9 16 L14 16"/></g>
<rect x="780.0" y="671.0" width="280.0" height="42" rx="4" class="box"></rect>
<text x="920.0" y="697.0" class="label" text-anchor="middle">seo-programmatic</text>
<g transform="translate(792.0,683) scale(0.75)" fill="none" stroke="#A4D4BD" stroke-width="2"><ellipse cx="12" cy="5" rx="8" ry="3"/><path d="M4 5 L 4 19 C 4 20.7, 7.6 22, 12 22 C 16.4 22, 20 20.7, 20 19 L 20 5"/><path d="M4 12 C 4 13.7, 7.6 15, 12 15 C 16.4 15, 20 13.7, 20 12"/></g>
<rect x="780.0" y="723.0" width="280.0" height="42" rx="4" class="box"></rect>
<text x="920.0" y="749.0" class="label" text-anchor="middle">seo-competitor-pages</text>
<g transform="translate(792.0,735) scale(0.75)" fill="none" stroke="#A4D4BD" stroke-width="2.2" stroke-linecap="round"><circle cx="10.5" cy="10.5" r="6.5"/><path d="M15.5 15.5 L20 20"/></g>
<text x="1120.0" y="378" class="label-accent" text-anchor="start">EXTENSIONS</text>
<text x="1420.0" y="378" class="label-tiny" text-anchor="end">02</text>
<rect x="1110.0" y="395" width="320.0" height="118" rx="6" class="box-soft"></rect>
<rect x="1130.0" y="411.0" width="280.0" height="42" rx="4" class="box"></rect>
<text x="1270.0" y="437.0" class="label" text-anchor="middle">seo-dataforseo</text>
<g transform="translate(1142.0,423) scale(0.75)" fill="none" stroke="#A4D4BD" stroke-width="2"><ellipse cx="12" cy="5" rx="8" ry="3"/><path d="M4 5 L 4 19 C 4 20.7, 7.6 22, 12 22 C 16.4 22, 20 20.7, 20 19 L 20 5"/><path d="M4 12 C 4 13.7, 7.6 15, 12 15 C 16.4 15, 20 13.7, 20 12"/></g>
<rect x="1130.0" y="463.0" width="280.0" height="42" rx="4" class="box"></rect>
<text x="1270.0" y="489.0" class="label" text-anchor="middle">seo-image-gen</text>
<g transform="translate(1142.0,475) scale(0.75)" fill="none" stroke="#A4D4BD" stroke-width="2" stroke-linecap="round"><path d="M5 19 L19 5"/><path d="M16 2 L16 6"/><path d="M14 4 L18 4"/><path d="M20 8 L20 11"/><path d="M19 9.5 L21 9.5"/></g>
  <text x="1480" y="1088" class="corner-mark" text-anchor="end">03 · sub-skill ecosystem · A</text>
</g>
</svg>
